<mxfile host="app.diagrams.net" agent="Mozilla/5.0 (Macintosh; Intel Mac OS X 10_15_7) AppleWebKit/537.36 (KHTML, like Gecko) Chrome/137.0.0.0 Safari/537.36" version="27.1.4">
  <diagram name="Page-1" id="t1zu0ygsGrMUasq9fE51">
    <mxGraphModel dx="983" dy="808" grid="1" gridSize="10" guides="1" tooltips="1" connect="1" arrows="1" fold="1" page="1" pageScale="1" pageWidth="1400" pageHeight="800" math="0" shadow="0">
      <root>
        <mxCell id="0" />
        <mxCell id="1" parent="0" />
        <mxCell id="Bb1hVN6BBo21C32OVdSu-5" style="edgeStyle=orthogonalEdgeStyle;rounded=0;orthogonalLoop=1;jettySize=auto;html=1;" edge="1" parent="1" source="Bb1hVN6BBo21C32OVdSu-1" target="Bb1hVN6BBo21C32OVdSu-3">
          <mxGeometry relative="1" as="geometry" />
        </mxCell>
        <mxCell id="Bb1hVN6BBo21C32OVdSu-6" style="edgeStyle=orthogonalEdgeStyle;rounded=0;orthogonalLoop=1;jettySize=auto;html=1;entryX=0.5;entryY=0;entryDx=0;entryDy=0;" edge="1" parent="1" source="Bb1hVN6BBo21C32OVdSu-1" target="Bb1hVN6BBo21C32OVdSu-4">
          <mxGeometry relative="1" as="geometry" />
        </mxCell>
        <mxCell id="Bb1hVN6BBo21C32OVdSu-1" value="MOV&lt;span style=&quot;white-space: pre;&quot;&gt;&#x9;&lt;/span&gt;x0, x1&lt;div&gt;MOV&lt;span style=&quot;white-space: pre;&quot;&gt;&#x9;&lt;/span&gt;x2, #10&lt;/div&gt;&lt;div&gt;.&lt;/div&gt;&lt;div&gt;.&lt;/div&gt;&lt;div&gt;.&lt;/div&gt;&lt;div&gt;CBZ 1100 ➡️ 4000&lt;/div&gt;" style="rounded=0;whiteSpace=wrap;html=1;align=left;" vertex="1" parent="1">
          <mxGeometry x="470" y="130" width="140" height="110" as="geometry" />
        </mxCell>
        <mxCell id="Bb1hVN6BBo21C32OVdSu-3" value="Location&amp;nbsp;&lt;span style=&quot;white-space: pre;&quot;&gt;&#x9;&lt;/span&gt;1000&lt;div&gt;mov&amp;nbsp;&lt;span style=&quot;white-space: pre;&quot;&gt;&#x9;&lt;/span&gt;x19, #8&lt;/div&gt;" style="rounded=0;whiteSpace=wrap;html=1;align=left;verticalAlign=top;" vertex="1" parent="1">
          <mxGeometry x="410" y="280" width="120" height="60" as="geometry" />
        </mxCell>
        <mxCell id="Bb1hVN6BBo21C32OVdSu-4" value="Location 1100&lt;div&gt;mov&lt;span style=&quot;white-space: pre;&quot;&gt;&#x9;&lt;/span&gt;&lt;span style=&quot;white-space: pre;&quot;&gt;&#x9;&lt;/span&gt;x20, x0&lt;/div&gt;" style="rounded=0;whiteSpace=wrap;html=1;align=left;verticalAlign=top;" vertex="1" parent="1">
          <mxGeometry x="550" y="280" width="120" height="60" as="geometry" />
        </mxCell>
        <mxCell id="Bb1hVN6BBo21C32OVdSu-7" value="Playground()&lt;div&gt;&lt;br&gt;&lt;/div&gt;&lt;div&gt;4000 CBZ 4020&lt;/div&gt;&lt;div&gt;4004 mark edge from 0xffc to 1000&lt;br&gt;&lt;div&gt;40... jump back to 1000&lt;/div&gt;&lt;/div&gt;&lt;div&gt;4020 mark edge from 0xffc to 1100&lt;/div&gt;&lt;div&gt;40.. jump back to 1100&lt;/div&gt;" style="rounded=0;whiteSpace=wrap;html=1;align=left;verticalAlign=top;" vertex="1" parent="1">
          <mxGeometry x="770" y="130" width="220" height="190" as="geometry" />
        </mxCell>
        <mxCell id="Bb1hVN6BBo21C32OVdSu-8" value="&lt;font style=&quot;font-size: 16px;&quot;&gt;Fuzzed function single edge&lt;/font&gt;" style="text;html=1;align=center;verticalAlign=middle;whiteSpace=wrap;rounded=0;" vertex="1" parent="1">
          <mxGeometry x="420" y="80" width="250" height="30" as="geometry" />
        </mxCell>
        <mxCell id="Bb1hVN6BBo21C32OVdSu-9" value="address 0xffc" style="text;html=1;align=center;verticalAlign=middle;whiteSpace=wrap;rounded=0;" vertex="1" parent="1">
          <mxGeometry x="380" y="206" width="97" height="30" as="geometry" />
        </mxCell>
        <mxCell id="Bb1hVN6BBo21C32OVdSu-10" value="&lt;font style=&quot;font-size: 16px;&quot;&gt;iOS harness&lt;/font&gt;" style="text;html=1;align=center;verticalAlign=middle;whiteSpace=wrap;rounded=0;" vertex="1" parent="1">
          <mxGeometry x="755" y="80" width="250" height="30" as="geometry" />
        </mxCell>
        <mxCell id="Bb1hVN6BBo21C32OVdSu-11" value="1" style="ellipse;whiteSpace=wrap;html=1;aspect=fixed;fillColor=#CCCCFF;" vertex="1" parent="1">
          <mxGeometry x="430" y="176" width="30" height="30" as="geometry" />
        </mxCell>
        <mxCell id="Bb1hVN6BBo21C32OVdSu-14" value="2" style="ellipse;whiteSpace=wrap;html=1;aspect=fixed;fillColor=#CCCCFF;" vertex="1" parent="1">
          <mxGeometry x="390" y="260" width="30" height="30" as="geometry" />
        </mxCell>
        <mxCell id="Bb1hVN6BBo21C32OVdSu-15" value="3" style="ellipse;whiteSpace=wrap;html=1;aspect=fixed;fillColor=#CCCCFF;" vertex="1" parent="1">
          <mxGeometry x="650" y="260" width="30" height="30" as="geometry" />
        </mxCell>
        <mxCell id="Bb1hVN6BBo21C32OVdSu-16" value="4" style="ellipse;whiteSpace=wrap;html=1;aspect=fixed;fillColor=#CCCCFF;" vertex="1" parent="1">
          <mxGeometry x="730" y="156" width="30" height="30" as="geometry" />
        </mxCell>
        <mxCell id="Bb1hVN6BBo21C32OVdSu-17" value="5" style="ellipse;whiteSpace=wrap;html=1;aspect=fixed;fillColor=#CCCCFF;" vertex="1" parent="1">
          <mxGeometry x="730" y="200" width="30" height="30" as="geometry" />
        </mxCell>
      </root>
    </mxGraphModel>
  </diagram>
</mxfile>
